<svg xmlns="http://www.w3.org/2000/svg" viewBox="0 0 1000 666.667" preserveAspectRatio="xMidYMid slice">
  <g>
  <path d="M 8359.83,6412.49 C 7003.72,6496.37 6332.65,6258.7 5829.35,4553.07 5595.87,3761.83 5060.42,3644.34 3564.5,3616.38 2576.42,3597.91 2570.66,3111.05 2221.25,2630.89 1685.8,1895.07 871.012,1610.03 155.188,1610.03 c -130.0825,0 -749.856,6.16 -1193.888,275.04" style="fill:none;stroke:#5a3200;stroke-width:8;stroke-linecap:round;stroke-linejoin:round;stroke-miterlimit:10;stroke-dasharray:none;stroke-opacity:0.15" transform="matrix(0.13333333,0,0,-0.13333333,0,666.66667)" />
  <path d="M 8310.99,6510.89 C 6954.25,6610.9 6275.08,6363.98 5777.73,4687.5 5543.39,3899.94 5031.39,3762.64 3529.55,3745.97 c -697.7,-7.75 -950.78,-232.43 -1123.38,-558.2 -58.69,-110.76 -210.05,-408.31 -367.86,-577.85 -476.97,-512.44 -1128.232,-873.2 -1883.122,-873.2 -400.79,0 -925.598,80.58 -1462.168,471.18" style="fill:none;stroke:#5a3200;stroke-width:8;stroke-linecap:round;stroke-linejoin:round;stroke-miterlimit:10;stroke-dasharray:none;stroke-opacity:0.15" transform="matrix(0.13333333,0,0,-0.13333333,0,666.66667)" />
  <path d="m 2310.5,3210 c 0.1,0.1 0.2,0.2 0.2,0.4 203.7,371.2 404.2,662.4 1183.9,665.2 1507.7,5.3 1996.3,162.4 2231.5,946.3 491.4,1647.4 1178.7,1903.5 2536,1787.4" style="fill:none;stroke:#5a3200;stroke-width:8;stroke-linecap:round;stroke-linejoin:round;stroke-miterlimit:10;stroke-dasharray:none;stroke-opacity:0.15" transform="matrix(0.13333333,0,0,-0.13333333,0,666.66667)" />
  <path d="m 2528.5,3902.4 c 184.1,146.9 447.7,237.4 896.2,232.3 1519.6,-17.2 1961.3,179.6 2198.2,956.1 479.5,1589 1182.9,1863.7 2541.5,1715.3" style="fill:none;stroke:#5a3200;stroke-width:8;stroke-linecap:round;stroke-linejoin:round;stroke-miterlimit:10;stroke-dasharray:none;stroke-opacity:0.15" transform="matrix(0.13333333,0,0,-0.13333333,0,666.66667)" />
  <path d="m 2549.5,4085.8 c 184,117.2 439.6,186 840.2,178.5 1525.5,-28.5 1943.8,188.1 2181.5,960.9 473.6,1559.9 1185.2,1843.8 2544.4,1679.3" style="fill:none;stroke:#5a3200;stroke-width:8;stroke-linecap:round;stroke-linejoin:round;stroke-miterlimit:10;stroke-dasharray:none;stroke-opacity:0.15" transform="matrix(0.13333333,0,0,-0.13333333,0,666.66667)" />
  <path d="m 2556.3,4251.1 c 183.1,97.7 430.9,152.4 798.5,142.8 1531.4,-39.8 1927.9,196.1 2164.8,965.7 470.9,1529.8 1187.3,1824 2547.2,1643.3" style="fill:none;stroke:#5a3200;stroke-width:8;stroke-linecap:round;stroke-linejoin:round;stroke-miterlimit:10;stroke-dasharray:none;stroke-opacity:0.15" transform="matrix(0.13333333,0,0,-0.13333333,0,666.66667)" />
  <path d="m 2552.5,4406.1 c 182,83.9 423,128.9 767.3,117.4 1537.4,-51.1 1910.6,204.5 2148.2,970.6 465.4,1500.4 1189.4,1804 2549.9,1607.2" style="fill:none;stroke:#5a3200;stroke-width:8;stroke-linecap:round;stroke-linejoin:round;stroke-miterlimit:10;stroke-dasharray:none;stroke-opacity:0.15" transform="matrix(0.13333333,0,0,-0.13333333,0,666.66667)" />
  <path d="m 2539.6,4554.2 c 181.2,74.2 417.2,112.1 745.3,98.9 1543.2,-62.4 1893.2,212.9 2131.5,975.4 459.7,1471.2 1191.6,1784.1 2552.7,1571.2" style="fill:none;stroke:#5a3200;stroke-width:8;stroke-linecap:round;stroke-linejoin:round;stroke-miterlimit:10;stroke-dasharray:none;stroke-opacity:0.15" transform="matrix(0.13333333,0,0,-0.13333333,0,666.66667)" />
  <path d="m 2518.4,4697.5 c 181.2,67.4 414,100.3 731.5,85.2 1549.2,-73.7 1875.9,221.4 2114.9,980.2 454,1442 1193.7,1764.3 2555.4,1535.2" style="fill:none;stroke:#5a3200;stroke-width:8;stroke-linecap:round;stroke-linejoin:round;stroke-miterlimit:10;stroke-dasharray:none;stroke-opacity:0.15" transform="matrix(0.13333333,0,0,-0.13333333,0,666.66667)" />
  <path d="m 2488.9,4837 c 182,62.9 413.8,92.3 726.1,75.3 1555.1,-85 1858.5,229.8 2098.1,985.1 448.3,1412.7 1195.9,1744.3 2558.3,1499.1" style="fill:none;stroke:#5a3200;stroke-width:8;stroke-linecap:round;stroke-linejoin:round;stroke-miterlimit:10;stroke-dasharray:none;stroke-opacity:0.15" transform="matrix(0.13333333,0,0,-0.13333333,0,666.66667)" />
  <path d="m 2451.5,4973.5 c 183.9,60.6 417,87.6 728.5,68.4 1561,-96.3 1841.2,238.3 2081.5,989.9 442.5,1383.5 1198.1,1724.4 2561,1463.1" style="fill:none;stroke:#5a3200;stroke-width:8;stroke-linecap:round;stroke-linejoin:round;stroke-miterlimit:10;stroke-dasharray:none;stroke-opacity:0.15" transform="matrix(0.13333333,0,0,-0.13333333,0,666.66667)" />
  <path d="m 2483.5,3680.2 c 182.4,197.4 449.5,327 976.1,324.9 1513.7,-5.9 1978.8,171.1 2214.9,951.3 485.4,1618.2 1180.8,1883.6 2538.8,1751.3" style="fill:none;stroke:#5a3200;stroke-width:8;stroke-linecap:round;stroke-linejoin:round;stroke-miterlimit:10;stroke-dasharray:none;stroke-opacity:0.15" transform="matrix(0.13333333,0,0,-0.13333333,0,666.66667)" />
  <path d="m 2310.7,3210.4 c 0,-0.2 -0.1,-0.3 -0.2,-0.4" style="fill:none;stroke:#5a3200;stroke-width:8;stroke-linecap:round;stroke-linejoin:round;stroke-miterlimit:10;stroke-dasharray:none;stroke-opacity:0.15" transform="matrix(0.13333333,0,0,-0.13333333,0,666.66667)" />
  <path d="m 670.496,-703.598 c 0,0 426.904,900.797 1314.104,1314.2 1230.4,573.198 2376.8,195.699 2855.1,731.498 179.6,201.2 258.8,412.2 300.3,612" style="fill:none;stroke:#5a3200;stroke-width:8;stroke-linecap:round;stroke-linejoin:round;stroke-miterlimit:10;stroke-dasharray:none;stroke-opacity:0.15" transform="matrix(0.13333333,0,0,-0.13333333,0,666.66667)" />
  <path d="m 783.301,-773.598 c 0,0 404.299,895.598 1333.899,1304.098 1222.3,537.1 2362.3,158.898 2842.2,698.7 189.6,212.9 265,438.6 302.1,650.7" style="fill:none;stroke:#5a3200;stroke-width:8;stroke-linecap:round;stroke-linejoin:round;stroke-miterlimit:10;stroke-dasharray:none;stroke-opacity:0.15" transform="matrix(0.13333333,0,0,-0.13333333,0,666.66667)" />
  <path d="m 896.098,-843.598 c 0,0 380.902,890.598 1353.702,1294.098 1212.8,503 2347.7,122.102 2829.3,665.7 202.7,228.4 272.3,473.3 303.8,701.1" style="fill:none;stroke:#5a3200;stroke-width:8;stroke-linecap:round;stroke-linejoin:round;stroke-miterlimit:10;stroke-dasharray:none;stroke-opacity:0.15" transform="matrix(0.13333333,0,0,-0.13333333,0,666.66667)" />
  <path d="m 1009,-913.598 c 0,0 356.6,885.8988 1373.3,1284.098 1202.2,470.699 2333.3,85.301 2816.5,632.7 218.9,247.3 279.3,516.3 304.4,762.3" style="fill:none;stroke:#5a3200;stroke-width:8;stroke-linecap:round;stroke-linejoin:round;stroke-miterlimit:10;stroke-dasharray:none;stroke-opacity:0.15" transform="matrix(0.13333333,0,0,-0.13333333,0,666.66667)" />
  <path d="m 1121.8,-983.598 c 0,0 331.7,881.598 1393.1,1274.098 1190.4,440.102 2318.7,48.402 2803.6,599.801 237.7,269.199 284.7,567.199 303,833.399" style="fill:none;stroke:#5a3200;stroke-width:8;stroke-linecap:round;stroke-linejoin:round;stroke-miterlimit:10;stroke-dasharray:none;stroke-opacity:0.15" transform="matrix(0.13333333,0,0,-0.13333333,0,666.66667)" />
  <path d="m 1234.6,-1053.6 c 0,0 306.3,877.6 1412.9,1263.998 1177.7,411.204 2304.2,11.704 2790.7,566.903 258.9,294.099 286.9,625.999 299,913.499" style="fill:none;stroke:#5a3200;stroke-width:8;stroke-linecap:round;stroke-linejoin:round;stroke-miterlimit:10;stroke-dasharray:none;stroke-opacity:0.15" transform="matrix(0.13333333,0,0,-0.13333333,0,666.66667)" />
  <path d="m 1347.4,-1123.6 c 0,0 280.3,874.202 1432.7,1253.998 1164.2,383.704 2289.6,-25.199 2777.8,533.903 282.5,321.801 284.3,693.299 292.7,1001.899" style="fill:none;stroke:#5a3200;stroke-width:8;stroke-linecap:round;stroke-linejoin:round;stroke-miterlimit:10;stroke-dasharray:none;stroke-opacity:0.15" transform="matrix(0.13333333,0,0,-0.13333333,0,666.66667)" />
  <path d="m 1460.2,-1193.6 c 0,0 253.7,871.401 1452.4,1243.9984 1150.2,357.4996 2275.2,-62 2765,501.0036 C 5986,903.699 5953,1320.8 5962.7,1648.6" style="fill:none;stroke:#5a3200;stroke-width:8;stroke-linecap:round;stroke-linejoin:round;stroke-miterlimit:10;stroke-dasharray:none;stroke-opacity:0.15" transform="matrix(0.13333333,0,0,-0.13333333,0,666.66667)" />
  <path d="m 8560.8,3089.5 c 26.7,-722 -383.7,-982.6 -1118.6,-1012.1" style="fill:none;stroke:#5a3200;stroke-width:8;stroke-linecap:round;stroke-linejoin:round;stroke-miterlimit:10;stroke-dasharray:none;stroke-opacity:0.15" transform="matrix(0.13333333,0,0,-0.13333333,0,666.66667)" />
  <path d="m 1573,-1263.6 c 0,0 226.7,869.202 1472.2,1233.9008 1135.5,332.5972 2260.7,-98.6988 2752.1,468.0972 336.8,386 257.7,856.102 277.5,1199.302" style="fill:none;stroke:#5a3200;stroke-width:8;stroke-linecap:round;stroke-linejoin:round;stroke-miterlimit:10;stroke-dasharray:none;stroke-opacity:0.15" transform="matrix(0.13333333,0,0,-0.13333333,0,666.66667)" />
  <path d="m 8653.1,2997.4 c 33.6,-802.8 -471.9,-1037.7 -1346,-1022.3" style="fill:none;stroke:#5a3200;stroke-width:8;stroke-linecap:round;stroke-linejoin:round;stroke-miterlimit:10;stroke-dasharray:none;stroke-opacity:0.15" transform="matrix(0.13333333,0,0,-0.13333333,0,666.66667)" />
  <path d="m 1685.8,-1333.6 c 0,0 199.3,867.702 1492,1223.901 1120.3,308.801 2246.1,-135.602 2739.2,435.097 368.5,423.504 228.6,956.302 273.8,1307.902" style="fill:none;stroke:#5a3200;stroke-width:8;stroke-linecap:round;stroke-linejoin:round;stroke-miterlimit:10;stroke-dasharray:none;stroke-opacity:0.15" transform="matrix(0.13333333,0,0,-0.13333333,0,666.66667)" />
  <path d="M 8745.4,2905.3 C 8786.6,2022.1 8177,1823.1 7162.8,1884.6" style="fill:none;stroke:#5a3200;stroke-width:8;stroke-linecap:round;stroke-linejoin:round;stroke-miterlimit:10;stroke-dasharray:none;stroke-opacity:0.15" transform="matrix(0.13333333,0,0,-0.13333333,0,666.66667)" />
  <path d="m 1798.6,-1403.6 c 0,0 171.6,866.901 1511.8,1213.901 C 4415.1,96.3008 5542,-362.102 6036.7,212.5 c 405.2,467 182.7,1076.7 280.5,1423.7" style="fill:none;stroke:#5a3200;stroke-width:8;stroke-linecap:round;stroke-linejoin:round;stroke-miterlimit:10;stroke-dasharray:none;stroke-opacity:0.15" transform="matrix(0.13333333,0,0,-0.13333333,0,666.66667)" />
  <path d="m 8837.7,2813.2 c 49.2,-959 -666.7,-1115 -1809.9,-1011.1 -7.9,0.7 -15.7,1.4 -23.4,1.9" style="fill:none;stroke:#5a3200;stroke-width:8;stroke-linecap:round;stroke-linejoin:round;stroke-miterlimit:10;stroke-dasharray:none;stroke-opacity:0.15" transform="matrix(0.13333333,0,0,-0.13333333,0,666.66667)" />
  <path d="m 1911.4,-1473.6 c 0,0 143.4,867.002 1531.6,1203.901 C 4531.8,-5.5 5660,-478.898 6156.4,99.5 c 452.6,523.301 105,1238.6 317.5,1551.8" style="fill:none;stroke:#5a3200;stroke-width:8;stroke-linecap:round;stroke-linejoin:round;stroke-miterlimit:10;stroke-dasharray:none;stroke-opacity:0.15" transform="matrix(0.13333333,0,0,-0.13333333,0,666.66667)" />
  <path d="m 2024.23,-1543.63 c 0,0 115,868.028 1551.3,1193.86 1072.63,243.329 2201.39,-245.011 2700.57,336.3012 616.75,718.2498 -288.58,1818.6488 846.69,1715.4388 1135.27,-103.2 1861.46,49.17 1807.17,1019.17" style="fill:none;stroke:#5a3200;stroke-width:8;stroke-linecap:round;stroke-linejoin:round;stroke-miterlimit:10;stroke-dasharray:none;stroke-opacity:0.15" transform="matrix(0.13333333,0,0,-0.13333333,0,666.66667)" />
  <path d="m 2137.04,-1613.64 c 0,0 86.32,869.999 1571.07,1183.851 1056.23,223.269 2186.84,-281.801 2687.69,303.359 611.3,714.2 -305.38,1830.78 821.96,1728.29 1127.36,-102.49 1863.81,46.27 1804.49,1027.2" style="fill:none;stroke:#5a3200;stroke-width:8;stroke-linecap:round;stroke-linejoin:round;stroke-miterlimit:10;stroke-dasharray:none;stroke-opacity:0.15" transform="matrix(0.13333333,0,0,-0.13333333,0,666.66667)" />
  <path d="m 2249.85,-1683.64 c 0,0 57.4,872.98 1590.84,1173.831 1039.65,203.957 2172.29,-318.609 2674.81,270.418 605.86,710.153 -322.19,1842.901 797.23,1741.131 1119.44,-101.76 1866.16,43.39 1801.8,1035.24" style="fill:none;stroke:#5a3200;stroke-width:8;stroke-linecap:round;stroke-linejoin:round;stroke-miterlimit:10;stroke-dasharray:none;stroke-opacity:0.15" transform="matrix(0.13333333,0,0,-0.13333333,0,666.66667)" />
  <path d="m 2362.66,-1753.64 c 0,0 28.28,877.062 1610.61,1163.8 1022.96,185.379 2157.76,-355.41 2661.93,237.481 600.43,706.089 -339,1855.039 772.51,1753.989 1111.51,-101.05 1868.49,40.49 1799.12,1043.27" style="fill:none;stroke:#5a3200;stroke-width:8;stroke-linecap:round;stroke-linejoin:round;stroke-miterlimit:10;stroke-dasharray:none;stroke-opacity:0.15" transform="matrix(0.13333333,0,0,-0.13333333,0,666.66667)" />
  <path d="m 2475.46,-1823.64 c 0,0 -0.98,882.312 1630.38,1153.769 1006.18,167.43 2143.25,-392.219 2649.06,204.543 595.02,702.027 -355.81,1867.168 747.78,1766.838 1103.59,-100.33 1870.85,37.6 1796.43,1051.31" style="fill:none;stroke:#5a3200;stroke-width:8;stroke-linecap:round;stroke-linejoin:round;stroke-miterlimit:10;stroke-dasharray:none;stroke-opacity:0.15" transform="matrix(0.13333333,0,0,-0.13333333,0,666.66667)" />
  <path d="m 2588.27,-1893.64 c 0,0 -30.39,888.81 1650.15,1143.749 989.35,150.09 2128.74,-429.059 2636.17,171.59 589.64,697.949 -372.61,1879.301 723.06,1779.701 1095.68,-99.61 1873.19,34.7 1793.75,1059.34" style="fill:none;stroke:#5a3200;stroke-width:8;stroke-linecap:round;stroke-linejoin:round;stroke-miterlimit:10;stroke-dasharray:none;stroke-opacity:0.15" transform="matrix(0.13333333,0,0,-0.13333333,0,666.66667)" />
  <path d="m 2701.08,-1963.64 c 0,0 -59.88,896.62 1669.92,1133.722 972.52,133.297 2115.45,-466.912 2623.3,138.648 585.62,692.69969 -389.44,1891.44 698.32,1792.55 1087.76,-98.89 1875.54,31.82 1791.07,1067.38" style="fill:none;stroke:#5a3200;stroke-width:8;stroke-linecap:round;stroke-linejoin:round;stroke-miterlimit:10;stroke-dasharray:none;stroke-opacity:0.15" transform="matrix(0.13333333,0,0,-0.13333333,0,666.66667)" />
  <path d="m 2813.89,-2033.65 c 0,0 -89.43,905.84 1689.68,1123.701 955.72,117.031 2100.94,-503.711 2610.42,105.719 580.2,688.64 -406.24,1903.56 673.61,1805.39 1079.83,-98.16 1877.88,28.93 1788.38,1075.43" style="fill:none;stroke:#5a3200;stroke-width:8;stroke-linecap:round;stroke-linejoin:round;stroke-miterlimit:10;stroke-dasharray:none;stroke-opacity:0.15" transform="matrix(0.13333333,0,0,-0.13333333,0,666.66667)" />
  <path d="m 2926.7,-2103.65 c 0,0 -118.99,916.53 1709.45,1113.681 938.96,101.239 2086.41,-540.531 2597.54,72.77 574.77,684.59 -423.05,1915.699 648.88,1818.238 1071.91,-97.449 1880.22,26.043 1785.69,1083.471" style="fill:none;stroke:#5a3200;stroke-width:8;stroke-linecap:round;stroke-linejoin:round;stroke-miterlimit:10;stroke-dasharray:none;stroke-opacity:0.15" transform="matrix(0.13333333,0,0,-0.13333333,0,666.66667)" />
  <path d="m 3039.51,-2173.65 c 0,0 -148.52,928.78 1729.22,1103.65 922.3,85.891 2071.9,-577.34 2584.66,39.83 569.33,680.549 -439.85,1927.83 624.15,1831.1 1063.99,-96.731 1882.58,23.14 1783.01,1091.5" style="fill:none;stroke:#5a3200;stroke-width:8;stroke-linecap:round;stroke-linejoin:round;stroke-miterlimit:10;stroke-dasharray:none;stroke-opacity:0.15" transform="matrix(0.13333333,0,0,-0.13333333,0,666.66667)" />
  <path d="m 3152.31,-2243.65 c 0,0 -177.97,942.67 1749,1093.62 905.76,70.96 2057.37,-614.15 2571.79,6.9 563.89,676.489 -456.67,1939.95 599.41,1843.939 1056.08,-96.008 1884.92,20.25 1780.33,1099.541" style="fill:none;stroke:#5a3200;stroke-width:8;stroke-linecap:round;stroke-linejoin:round;stroke-miterlimit:10;stroke-dasharray:none;stroke-opacity:0.15" transform="matrix(0.13333333,0,0,-0.13333333,0,666.66667)" />
  <path d="m 3265.13,-2313.65 c 0,0 -207.32,958.3 1768.76,1083.59 889.36,56.4 2042.85,-650.96 2558.9,-26.04 558.48,672.452 -473.47,1952.092 574.69,1856.791 1048.16,-95.281 1887.32,17.368 1777.65,1107.579" style="fill:none;stroke:#5a3200;stroke-width:8;stroke-linecap:round;stroke-linejoin:round;stroke-miterlimit:10;stroke-dasharray:none;stroke-opacity:0.15" transform="matrix(0.13333333,0,0,-0.13333333,0,666.66667)" />
  <path d="m 3377.93,-2383.66 c 0,0 -236.47,975.75 1788.53,1073.58 873.14,42.18 2028.33,-687.78 2546.03,-58.99 553.05,668.402 -490.28,1964.222 549.96,1869.652 1040.25,-94.562 1889.65,14.457 1774.95,1115.608" style="fill:none;stroke:#5a3200;stroke-width:8;stroke-linecap:round;stroke-linejoin:round;stroke-miterlimit:10;stroke-dasharray:none;stroke-opacity:0.15" transform="matrix(0.13333333,0,0,-0.13333333,0,666.66667)" />
  <path d="m 3490.74,-2453.66 c 0,0 -255.72,852.04 1808.3,1063.55 853.13,87.42 2013.82,-724.59 2533.15,-91.92 547.61,664.339 -507.09,1976.35 525.23,1882.499 1032.33,-93.848 1891.98,11.562 1772.28,1123.641" style="fill:none;stroke:#5a3200;stroke-width:8;stroke-linecap:round;stroke-linejoin:round;stroke-miterlimit:10;stroke-dasharray:none;stroke-opacity:0.15" transform="matrix(0.13333333,0,0,-0.13333333,0,666.66667)" />
  <path d="m 3603.55,-2523.66 c 0,0 -288.98,902.61 1828.07,1053.52 839.34,59.84 1999.3,-761.39 2520.26,-124.86 542.19,660.289 -523.89,1988.48 500.51,1895.352 C 9476.8,207.219 10346.7,309.02 10222,1432.03" style="fill:none;stroke:#5a3200;stroke-width:8;stroke-linecap:round;stroke-linejoin:round;stroke-miterlimit:10;stroke-dasharray:none;stroke-opacity:0.15" transform="matrix(0.13333333,0,0,-0.13333333,0,666.66667)" />
  <path d="m 3716.36,-2593.66 c 0,0 -320.69,959.53 1847.83,1043.49 825.21,31.97 1984.78,-798.21 2507.4,-157.8 536.75,656.25 -540.72,2000.611 475.77,1908.2 1016.5,-92.41 1896.64,5.79 1766.94,1139.73" style="fill:none;stroke:#5a3200;stroke-width:8;stroke-linecap:round;stroke-linejoin:round;stroke-miterlimit:10;stroke-dasharray:none;stroke-opacity:0.15" transform="matrix(0.13333333,0,0,-0.13333333,0,666.66667)" />
  <path d="m 3829.17,-2663.66 c 0,0 -350.15,1065.49 1867.6,1033.47 810.59,-11.7 1970.26,-835.02 2494.52,-190.75 531.32,652.2 -557.53,2012.749 451.04,1921.061 1008.58,-91.69131 1898.97,2.891 1764.27,1147.759" style="fill:none;stroke:#5a3200;stroke-width:8;stroke-linecap:round;stroke-linejoin:round;stroke-miterlimit:10;stroke-dasharray:none;stroke-opacity:0.15" transform="matrix(0.13333333,0,0,-0.13333333,0,666.66667)" />
  <path d="m 3941.98,-2733.66 c 0,0 -377.48,1093.35 1887.37,1023.45 795.68,-24.57 1955.74,-871.84 2481.64,-223.7 C 8836.88,-1285.75 7736.65,90.9688 8737.3,0 c 1000.66,-90.9688 1901.4,0 1761.6,1155.8" style="fill:none;stroke:#5a3200;stroke-width:8;stroke-linecap:round;stroke-linejoin:round;stroke-miterlimit:10;stroke-dasharray:none;stroke-opacity:0.15" transform="matrix(0.13333333,0,0,-0.13333333,0,666.66667)" />
  <path d="m 6207.1,5506.5 h 0.9 c 1069.6,0 1936.7,-867 1936.7,-1936.7 0,-1069.6 -867.1,-1936.6 -1936.7,-1936.6 -1069.6,0 -1936.7,867 -1936.7,1936.6 0,24.5 0.5,48.8 1.3,73.1" style="fill:none;stroke:#5a3200;stroke-width:8;stroke-linecap:round;stroke-linejoin:round;stroke-miterlimit:10;stroke-dasharray:none;stroke-opacity:0.15" transform="matrix(0.13333333,0,0,-0.13333333,0,666.66667)" />
  <path d="m 6149.6,5397.4 c 19.4,0.6 38.9,0.9 58.4,0.9 1009.8,0 1828.5,-818.6 1828.5,-1828.5 0,-1009.8 -818.7,-1828.4 -1828.5,-1828.4 -1009.9,0 -1828.5,818.6 -1828.5,1828.4 0,27.2 0.6,54.2 1.8,81.1" style="fill:none;stroke:#5a3200;stroke-width:8;stroke-linecap:round;stroke-linejoin:round;stroke-miterlimit:10;stroke-dasharray:none;stroke-opacity:0.15" transform="matrix(0.13333333,0,0,-0.13333333,0,666.66667)" />
  <path d="m 6096.3,5286.5 c 36.9,2.4 74.2,3.6 111.7,3.6 950.1,0 1720.3,-770.2 1720.3,-1720.3 0,-950 -770.2,-1720.3 -1720.3,-1720.3 -950.1,0 -1720.3,770.3 -1720.3,1720.3 0,30.5 0.8,60.7 2.3,90.8" style="fill:none;stroke:#5a3200;stroke-width:8;stroke-linecap:round;stroke-linejoin:round;stroke-miterlimit:10;stroke-dasharray:none;stroke-opacity:0.15" transform="matrix(0.13333333,0,0,-0.13333333,0,666.66667)" />
  <path d="m 6046.9,5174 c 53,5.3 106.7,8 161.1,8 890.3,0 1612.1,-721.8 1612.1,-1612.2 0,-890.3 -721.8,-1612.1 -1612.1,-1612.1 -890.4,0 -1612.1,721.8 -1612.1,1612.1 0,34.5 1.1,68.8 3.3,102.7" style="fill:none;stroke:#5a3200;stroke-width:8;stroke-linecap:round;stroke-linejoin:round;stroke-miterlimit:10;stroke-dasharray:none;stroke-opacity:0.15" transform="matrix(0.13333333,0,0,-0.13333333,0,666.66667)" />
  <path d="m 6000.5,5059.6 c 67.8,9.4 137.1,14.2 207.5,14.2 830.6,0 1503.9,-673.4 1503.9,-1504 0,-830.5 -673.3,-1503.9 -1503.9,-1503.9 -830.6,0 -1503.9,673.4 -1503.9,1503.9 0,39.5 1.5,78.6 4.5,117.3" style="fill:none;stroke:#5a3200;stroke-width:8;stroke-linecap:round;stroke-linejoin:round;stroke-miterlimit:10;stroke-dasharray:none;stroke-opacity:0.15" transform="matrix(0.13333333,0,0,-0.13333333,0,666.66667)" />
  <path d="m 5956.6,4943 c 81.6,14.9 165.6,22.6 251.4,22.6 770.8,0 1395.7,-624.9 1395.7,-1395.8 0,-770.8 -624.9,-1395.7 -1395.7,-1395.7 -770.8,0 -1395.7,624.9 -1395.7,1395.7 0,45.7 2.2,90.8 6.5,135.4" style="fill:none;stroke:#5a3200;stroke-width:8;stroke-linecap:round;stroke-linejoin:round;stroke-miterlimit:10;stroke-dasharray:none;stroke-opacity:0.15" transform="matrix(0.13333333,0,0,-0.13333333,0,666.66667)" />
  <path d="m 5914.9,4823.8 c 94.1,22 192.3,33.6 293.1,33.6 711.1,0 1287.5,-576.5 1287.5,-1287.6 0,-711 -576.4,-1287.5 -1287.5,-1287.5 -711.1,0 -1287.5,576.5 -1287.5,1287.5 0,53.5 3.3,106.3 9.6,158.1" style="fill:none;stroke:#5a3200;stroke-width:8;stroke-linecap:round;stroke-linejoin:round;stroke-miterlimit:10;stroke-dasharray:none;stroke-opacity:0.15" transform="matrix(0.13333333,0,0,-0.13333333,0,666.66667)" />
  <path d="m 5874.7,4701.4 c 105.7,31.1 217.5,47.8 333.3,47.8 651.3,0 1179.3,-528 1179.3,-1179.4 0,-651.3 -528,-1179.3 -1179.3,-1179.3 -651.3,0 -1179.3,528 -1179.3,1179.3 0,63.6 5,126.1 14.8,187" style="fill:none;stroke:#5a3200;stroke-width:8;stroke-linecap:round;stroke-linejoin:round;stroke-miterlimit:10;stroke-dasharray:none;stroke-opacity:0.15" transform="matrix(0.13333333,0,0,-0.13333333,0,666.66667)" />
  <path d="m 5835.7,4574.5 c 115.9,43 241.4,66.5 372.3,66.5 591.6,0 1071.1,-479.6 1071.1,-1071.2 0,-591.5 -479.5,-1071.1 -1071.1,-1071.1 -591.6,0 -1071.1,479.6 -1071.1,1071.1 0,77.2 8.2,152.5 23.8,225.1" style="fill:none;stroke:#5a3200;stroke-width:8;stroke-linecap:round;stroke-linejoin:round;stroke-miterlimit:10;stroke-dasharray:none;stroke-opacity:0.15" transform="matrix(0.13333333,0,0,-0.13333333,0,666.66667)" />
  <path d="m 5791.6,4438.3 c 126.1,60.6 267.3,94.5 416.4,94.5 531.8,0 962.9,-431.1 962.9,-963 0,-531.8 -431.1,-962.9 -962.9,-962.9 -531.8,0 -963,431.1 -963,962.9 0,96.9 14.3,190.4 40.9,278.5" style="fill:none;stroke:#5a3200;stroke-width:8;stroke-linecap:round;stroke-linejoin:round;stroke-miterlimit:10;stroke-dasharray:none;stroke-opacity:0.15" transform="matrix(0.13333333,0,0,-0.13333333,0,666.66667)" />
  <path d="m 5717.7,4270 c 138.8,97.4 307.9,154.6 490.3,154.6 472,0 854.7,-382.7 854.7,-854.8 0,-472 -382.7,-854.7 -854.7,-854.7 -472.1,0 -854.8,382.7 -854.8,854.7 0,132.1 30,257.2 83.5,368.9" style="fill:none;stroke:#5a3200;stroke-width:8;stroke-linecap:round;stroke-linejoin:round;stroke-miterlimit:10;stroke-dasharray:none;stroke-opacity:0.15" transform="matrix(0.13333333,0,0,-0.13333333,0,666.66667)" />
  <path d="m 6207.98,4316.39 c 412.31,0 746.55,-334.24 746.55,-746.54 0,-412.31 -334.24,-746.55 -746.55,-746.55 -412.3,0 -746.54,334.24 -746.54,746.55 0,412.3 334.24,746.54 746.54,746.54 z" style="fill:none;stroke:#5a3200;stroke-width:8;stroke-linecap:round;stroke-linejoin:round;stroke-miterlimit:10;stroke-dasharray:none;stroke-opacity:0.15" transform="matrix(0.13333333,0,0,-0.13333333,0,666.66667)" />
  <path d="m 6207.98,4208.2 c 352.56,0 638.36,-285.8 638.36,-638.35 0,-352.56 -285.8,-638.35 -638.36,-638.35 -352.55,0 -638.35,285.79 -638.35,638.35 0,352.55 285.8,638.35 638.35,638.35 z" style="fill:none;stroke:#5a3200;stroke-width:8;stroke-linecap:round;stroke-linejoin:round;stroke-miterlimit:10;stroke-dasharray:none;stroke-opacity:0.15" transform="matrix(0.13333333,0,0,-0.13333333,0,666.66667)" />
  <path d="m 6207.98,4100 c 292.8,0 530.16,-237.35 530.16,-530.15 0,-292.8 -237.36,-530.16 -530.16,-530.16 -292.79,0 -530.15,237.36 -530.15,530.16 0,292.8 237.36,530.15 530.15,530.15 z" style="fill:none;stroke:#5a3200;stroke-width:8;stroke-linecap:round;stroke-linejoin:round;stroke-miterlimit:10;stroke-dasharray:none;stroke-opacity:0.15" transform="matrix(0.13333333,0,0,-0.13333333,0,666.66667)" />
  <path d="m 6207.98,3991.81 c 233.05,0 421.97,-188.92 421.97,-421.96 0,-233.04 -188.92,-421.96 -421.97,-421.96 -233.04,0 -421.95,188.92 -421.95,421.96 0,233.04 188.91,421.96 421.95,421.96 z" style="fill:none;stroke:#5a3200;stroke-width:8;stroke-linecap:round;stroke-linejoin:round;stroke-miterlimit:10;stroke-dasharray:none;stroke-opacity:0.15" transform="matrix(0.13333333,0,0,-0.13333333,0,666.66667)" />
  <path d="m 6207.98,3883.61 c 173.29,0 313.77,-140.48 313.77,-313.76 0,-173.29 -140.48,-313.77 -313.77,-313.77 -173.28,0 -313.76,140.48 -313.76,313.77 0,173.28 140.48,313.76 313.76,313.76 z" style="fill:none;stroke:#5a3200;stroke-width:8;stroke-linecap:round;stroke-linejoin:round;stroke-miterlimit:10;stroke-dasharray:none;stroke-opacity:0.15" transform="matrix(0.13333333,0,0,-0.13333333,0,666.66667)" />
  <path d="m 6413.55,3569.85 c 0,-113.54 -92.03,-205.57 -205.57,-205.57 -113.53,0 -205.57,92.03 -205.57,205.57 0,113.53 92.04,205.57 205.57,205.57 113.54,0 205.57,-92.04 205.57,-205.57 z" style="fill:none;stroke:#5a3200;stroke-width:8;stroke-linecap:round;stroke-linejoin:round;stroke-miterlimit:10;stroke-dasharray:none;stroke-opacity:0.15" transform="matrix(0.13333333,0,0,-0.13333333,0,666.66667)" />
  <path d="m 6322.59,3569.85 c 0,-63.3 -51.31,-114.61 -114.61,-114.61 -63.29,0 -114.6,51.31 -114.6,114.61 0,63.29 51.31,114.6 114.6,114.6 63.3,0 114.61,-51.31 114.61,-114.6 z" style="fill:none;stroke:#5a3200;stroke-width:8;stroke-linecap:round;stroke-linejoin:round;stroke-miterlimit:10;stroke-dasharray:none;stroke-opacity:0.15" transform="matrix(0.13333333,0,0,-0.13333333,0,666.66667)" />
  <path d="m 2556.36,4269.55 c 0,-1326.13 -1075.05,-2401.17 -2401.172,-2401.17 -1326.138,0 -2401.178,1075.04 -2401.178,2401.17 0,1326.13 1075.04,2401.17 2401.178,2401.17 1326.122,0 2401.172,-1075.04 2401.172,-2401.17 z" style="fill:none;stroke:#5a3200;stroke-width:8;stroke-linecap:round;stroke-linejoin:round;stroke-miterlimit:10;stroke-dasharray:none;stroke-opacity:0.15" transform="matrix(0.13333333,0,0,-0.13333333,0,666.66667)" />
  <path d="m 155.188,6536.58 c 1252.042,0 2267.022,-1014.99 2267.022,-2267.03 0,-1252.05 -1014.98,-2267.03 -2267.022,-2267.03 -1252.048,0 -2267.038,1014.98 -2267.038,2267.03 0,1252.04 1014.99,2267.03 2267.038,2267.03 z" style="fill:none;stroke:#5a3200;stroke-width:8;stroke-linecap:round;stroke-linejoin:round;stroke-miterlimit:10;stroke-dasharray:none;stroke-opacity:0.15" transform="matrix(0.13333333,0,0,-0.13333333,0,666.66667)" />
  <path d="m 155.188,6402.43 c 1177.952,0 2132.882,-954.92 2132.882,-2132.88 0,-1177.96 -954.93,-2132.89 -2132.882,-2132.89 -1177.958,0 -2132.888,954.93 -2132.888,2132.89 0,1177.96 954.93,2132.88 2132.888,2132.88 z" style="fill:none;stroke:#5a3200;stroke-width:8;stroke-linecap:round;stroke-linejoin:round;stroke-miterlimit:10;stroke-dasharray:none;stroke-opacity:0.15" transform="matrix(0.13333333,0,0,-0.13333333,0,666.66667)" />
  <path d="m 155.188,6268.29 c 1103.872,0 1998.742,-894.87 1998.742,-1998.74 0,-1103.88 -894.87,-1998.74 -1998.742,-1998.74 -1103.879,0 -1998.748,894.86 -1998.748,1998.74 0,1103.87 894.869,1998.74 1998.748,1998.74 z" style="fill:none;stroke:#5a3200;stroke-width:8;stroke-linecap:round;stroke-linejoin:round;stroke-miterlimit:10;stroke-dasharray:none;stroke-opacity:0.15" transform="matrix(0.13333333,0,0,-0.13333333,0,666.66667)" />
  <path d="m 155.188,6134.15 c 1029.782,0 1864.592,-834.81 1864.592,-1864.6 0,-1029.79 -834.81,-1864.6 -1864.592,-1864.6 -1029.793,0 -1864.598,834.81 -1864.598,1864.6 0,1029.79 834.805,1864.6 1864.598,1864.6 z" style="fill:none;stroke:#5a3200;stroke-width:8;stroke-linecap:round;stroke-linejoin:round;stroke-miterlimit:10;stroke-dasharray:none;stroke-opacity:0.15" transform="matrix(0.13333333,0,0,-0.13333333,0,666.66667)" />
  <path d="m 155.188,6000 c 955.702,0 1730.452,-774.75 1730.452,-1730.45 0,-955.7 -774.75,-1730.45 -1730.452,-1730.45 -955.708,0 -1730.458,774.75 -1730.458,1730.45 0,955.7 774.75,1730.45 1730.458,1730.45 z" style="fill:none;stroke:#5a3200;stroke-width:8;stroke-linecap:round;stroke-linejoin:round;stroke-miterlimit:10;stroke-dasharray:none;stroke-opacity:0.15" transform="matrix(0.13333333,0,0,-0.13333333,0,666.66667)" />
  <path d="m 155.188,5865.86 c 881.612,0 1596.302,-714.69 1596.302,-1596.31 0,-881.62 -714.69,-1596.31 -1596.302,-1596.31 -881.626,0 -1596.318,714.69 -1596.318,1596.31 0,881.62 714.692,1596.31 1596.318,1596.31 z" style="fill:none;stroke:#5a3200;stroke-width:8;stroke-linecap:round;stroke-linejoin:round;stroke-miterlimit:10;stroke-dasharray:none;stroke-opacity:0.15" transform="matrix(0.13333333,0,0,-0.13333333,0,666.66667)" />
  <path d="m 155.188,5731.71 c 807.527,0 1462.162,-654.63 1462.162,-1462.16 0,-807.53 -654.635,-1462.17 -1462.162,-1462.17 -807.536,0 -1462.168,654.64 -1462.168,1462.17 0,807.53 654.632,1462.16 1462.168,1462.16 z" style="fill:none;stroke:#5a3200;stroke-width:8;stroke-linecap:round;stroke-linejoin:round;stroke-miterlimit:10;stroke-dasharray:none;stroke-opacity:0.15" transform="matrix(0.13333333,0,0,-0.13333333,0,666.66667)" />
  <path d="m 155.188,5597.57 c 733.445,0 1328.022,-594.58 1328.022,-1328.02 0,-733.45 -594.577,-1328.03 -1328.022,-1328.03 -733.45,0 -1328.028,594.58 -1328.028,1328.03 0,733.44 594.578,1328.02 1328.028,1328.02 z" style="fill:none;stroke:#5a3200;stroke-width:8;stroke-linecap:round;stroke-linejoin:round;stroke-miterlimit:10;stroke-dasharray:none;stroke-opacity:0.15" transform="matrix(0.13333333,0,0,-0.13333333,0,666.66667)" />
  <path d="m 155.188,5463.43 c 659.359,0 1193.872,-534.52 1193.872,-1193.88 0,-659.36 -534.513,-1193.88 -1193.872,-1193.88 -659.364,0 -1193.888,534.52 -1193.888,1193.88 0,659.36 534.524,1193.88 1193.888,1193.88 z" style="fill:none;stroke:#5a3200;stroke-width:8;stroke-linecap:round;stroke-linejoin:round;stroke-miterlimit:10;stroke-dasharray:none;stroke-opacity:0.15" transform="matrix(0.13333333,0,0,-0.13333333,0,666.66667)" />
  <path d="m 155.188,5329.28 c 585.273,0 1059.732,-474.46 1059.732,-1059.73 0,-585.28 -474.459,-1059.74 -1059.732,-1059.74 -585.282,0 -1059.739,474.46 -1059.739,1059.74 0,585.27 474.457,1059.73 1059.739,1059.73 z" style="fill:none;stroke:#5a3200;stroke-width:8;stroke-linecap:round;stroke-linejoin:round;stroke-miterlimit:10;stroke-dasharray:none;stroke-opacity:0.15" transform="matrix(0.13333333,0,0,-0.13333333,0,666.66667)" />
  <path d="m 155.188,5195.14 c 511.183,0 925.592,-414.4 925.592,-925.59 0,-511.19 -414.409,-925.59 -925.592,-925.59 -511.196,0 -925.598,414.4 -925.598,925.59 0,511.19 414.402,925.59 925.598,925.59 z" style="fill:none;stroke:#5a3200;stroke-width:8;stroke-linecap:round;stroke-linejoin:round;stroke-miterlimit:10;stroke-dasharray:none;stroke-opacity:0.15" transform="matrix(0.13333333,0,0,-0.13333333,0,666.66667)" />
  <path d="m 155.188,5061 c 437.101,0 791.445,-354.34 791.445,-791.45 0,-437.1 -354.344,-791.45 -791.445,-791.45 -437.106,0 -791.454,354.35 -791.454,791.45 0,437.11 354.348,791.45 791.454,791.45 z" style="fill:none;stroke:#5a3200;stroke-width:8;stroke-linecap:round;stroke-linejoin:round;stroke-miterlimit:10;stroke-dasharray:none;stroke-opacity:0.15" transform="matrix(0.13333333,0,0,-0.13333333,0,666.66667)" />
  <path d="m 155.188,4926.86 c 363.015,0 657.3,-294.29 657.3,-657.31 0,-363.02 -294.285,-657.3 -657.3,-657.3 -363.024,0 -657.305,294.28 -657.305,657.3 0,363.02 294.281,657.31 657.305,657.31 z" style="fill:none;stroke:#5a3200;stroke-width:8;stroke-linecap:round;stroke-linejoin:round;stroke-miterlimit:10;stroke-dasharray:none;stroke-opacity:0.15" transform="matrix(0.13333333,0,0,-0.13333333,0,666.66667)" />
  <path d="m 155.188,4792.71 c 288.929,0 523.156,-234.23 523.156,-523.16 0,-288.93 -234.227,-523.16 -523.156,-523.16 -288.938,0 -523.168,234.23 -523.168,523.16 0,288.93 234.23,523.16 523.168,523.16 z" style="fill:none;stroke:#5a3200;stroke-width:8;stroke-linecap:round;stroke-linejoin:round;stroke-miterlimit:10;stroke-dasharray:none;stroke-opacity:0.15" transform="matrix(0.13333333,0,0,-0.13333333,0,666.66667)" />
  <path d="m 155.188,4658.56 c 214.847,0 389.011,-174.16 389.011,-389.01 0,-214.85 -174.164,-389.02 -389.011,-389.02 -214.8521,0 -389.02,174.17 -389.02,389.02 0,214.85 174.1679,389.01 389.02,389.01 z" style="fill:none;stroke:#5a3200;stroke-width:8;stroke-linecap:round;stroke-linejoin:round;stroke-miterlimit:10;stroke-dasharray:none;stroke-opacity:0.15" transform="matrix(0.13333333,0,0,-0.13333333,0,666.66667)" />
  <path d="m 410.059,4269.55 c 0,-140.76 -114.114,-254.88 -254.871,-254.88 -140.77,0 -254.8755,114.12 -254.8755,254.88 0,140.76 114.1055,254.88 254.8755,254.88 140.757,0 254.871,-114.12 254.871,-254.88 z" style="fill:none;stroke:#5a3200;stroke-width:8;stroke-linecap:round;stroke-linejoin:round;stroke-miterlimit:10;stroke-dasharray:none;stroke-opacity:0.15" transform="matrix(0.13333333,0,0,-0.13333333,0,666.66667)" />
  <path d="m 307.031,4269.55 c 0,-83.87 -67.984,-151.85 -151.843,-151.85 -83.8677,0 -151.85206,67.98 -151.85206,151.85 0,83.86 67.98436,151.84 151.85206,151.84 83.859,0 151.843,-67.98 151.843,-151.84 z" style="fill:none;stroke:#5a3200;stroke-width:8;stroke-linecap:round;stroke-linejoin:round;stroke-miterlimit:10;stroke-dasharray:none;stroke-opacity:0.15" transform="matrix(0.13333333,0,0,-0.13333333,0,666.66667)" />
  <path d="m 3404.5,963.602 c -102.6,-10.5 -208.2,-22.704 -316.3,-38.403" style="fill:none;stroke:#5a3200;stroke-width:8;stroke-linecap:round;stroke-linejoin:round;stroke-miterlimit:10;stroke-dasharray:none;stroke-opacity:0.15" transform="matrix(0.13333333,0,0,-0.13333333,0,666.66667)" />
  <path d="M 2271.1,728.301 H 2271" style="fill:none;stroke:#5a3200;stroke-width:8;stroke-linecap:round;stroke-linejoin:round;stroke-miterlimit:10;stroke-dasharray:none;stroke-opacity:0.15" transform="matrix(0.13333333,0,0,-0.13333333,0,666.66667)" />
  <path d="m 1761,490.898 c -48.7,135.602 -75.2,281.903 -75.2,434.301 0,710.301 575.8,1286.101 1286.1,1286.101 665.7,0 1213.2,-505.7 1279.4,-1153.9" style="fill:none;stroke:#5a3200;stroke-width:8;stroke-linecap:round;stroke-linejoin:round;stroke-miterlimit:10;stroke-dasharray:none;stroke-opacity:0.15" transform="matrix(0.13333333,0,0,-0.13333333,0,666.66667)" />
  <path d="m 1859.7,547.699 c -40.2,118.5 -62,245.5 -62,377.5 0,648.501 525.7,1174.301 1174.2,1174.301 610.2,0 1111.8,-465.5 1168.8,-1060.8" style="fill:none;stroke:#5a3200;stroke-width:8;stroke-linecap:round;stroke-linejoin:round;stroke-miterlimit:10;stroke-dasharray:none;stroke-opacity:0.15" transform="matrix(0.13333333,0,0,-0.13333333,0,666.66667)" />
  <path d="m 1960.6,599.102 c -33.2,102.699 -51.1,212.3 -51.1,326.097 0,586.701 475.7,1062.401 1062.4,1062.401 553.5,0 1008.2,-423.4 1057.8,-963.9" style="fill:none;stroke:#5a3200;stroke-width:8;stroke-linecap:round;stroke-linejoin:round;stroke-miterlimit:10;stroke-dasharray:none;stroke-opacity:0.15" transform="matrix(0.13333333,0,0,-0.13333333,0,666.66667)" />
  <path d="m 2063.1,645.898 c -27.1,88.301 -41.7,182.102 -41.7,279.301 0,525.001 425.5,950.601 950.5,950.601 495.9,0 903.2,-379.8 946.7,-864.4" style="fill:none;stroke:#5a3200;stroke-width:8;stroke-linecap:round;stroke-linejoin:round;stroke-miterlimit:10;stroke-dasharray:none;stroke-opacity:0.15" transform="matrix(0.13333333,0,0,-0.13333333,0,666.66667)" />
  <path d="m 2167,689 c -22,74.902 -33.8,154.199 -33.8,236.199 0,463.201 375.5,838.701 838.7,838.701 437.8,0 797.2,-335.4 835.3,-763.3" style="fill:none;stroke:#5a3200;stroke-width:8;stroke-linecap:round;stroke-linejoin:round;stroke-miterlimit:10;stroke-dasharray:none;stroke-opacity:0.15" transform="matrix(0.13333333,0,0,-0.13333333,0,666.66667)" />
  <path d="m 2272,728.699 c -17.5,62.5 -26.9,128.403 -26.9,196.5 0,401.401 325.4,726.801 726.8,726.801 379.4,0 691,-290.7 723.9,-661.5" style="fill:none;stroke:#5a3200;stroke-width:8;stroke-linecap:round;stroke-linejoin:round;stroke-miterlimit:10;stroke-dasharray:none;stroke-opacity:0.15" transform="matrix(0.13333333,0,0,-0.13333333,0,666.66667)" />
  <path d="m 2378.1,764.898 c -13.9,51.102 -21.2,104.903 -21.2,160.301 0,339.701 275.3,615.001 615,615.001 321,0 584.5,-245.9 612.5,-559.598" style="fill:none;stroke:#5a3200;stroke-width:8;stroke-linecap:round;stroke-linejoin:round;stroke-miterlimit:10;stroke-dasharray:none;stroke-opacity:0.15" transform="matrix(0.13333333,0,0,-0.13333333,0,666.66667)" />
  <path d="m 2485.1,797.699 c -10.6,40.699 -16.3,83.403 -16.3,127.5 0,277.901 225.2,503.101 503.1,503.101 262.7,0 478.4,-201.2 501.1,-457.999" style="fill:none;stroke:#5a3200;stroke-width:8;stroke-linecap:round;stroke-linejoin:round;stroke-miterlimit:10;stroke-dasharray:none;stroke-opacity:0.15" transform="matrix(0.13333333,0,0,-0.13333333,0,666.66667)" />
  <path d="m 2592.9,827.301 c -8,31.301 -12.3,64.101 -12.3,97.898 0,216.101 175.2,391.301 391.3,391.301 204.7,0 372.7,-157.2 389.9,-357.398" style="fill:none;stroke:#5a3200;stroke-width:8;stroke-linecap:round;stroke-linejoin:round;stroke-miterlimit:10;stroke-dasharray:none;stroke-opacity:0.15" transform="matrix(0.13333333,0,0,-0.13333333,0,666.66667)" />
  <path d="m 2701.7,853.801 c -6,22.801 -9.2,46.699 -9.2,71.398 0,154.301 125.1,279.401 279.4,279.401 147.1,0 267.8,-113.7 278.6,-257.998" style="fill:none;stroke:#5a3200;stroke-width:8;stroke-linecap:round;stroke-linejoin:round;stroke-miterlimit:10;stroke-dasharray:none;stroke-opacity:0.15" transform="matrix(0.13333333,0,0,-0.13333333,0,666.66667)" />
  <path d="m 2811.2,877.5 c -4.5,15.102 -6.9,31.102 -6.9,47.699 0,92.601 75,167.601 167.6,167.601 90.2,0 163.7,-71.1 167.4,-160.402" style="fill:none;stroke:#5a3200;stroke-width:8;stroke-linecap:round;stroke-linejoin:round;stroke-miterlimit:10;stroke-dasharray:none;stroke-opacity:0.15" transform="matrix(0.13333333,0,0,-0.13333333,0,666.66667)" />
  <path d="M -2414.21,729.332 C -1411.35,-259.219 -575.883,284.281 -104.988,-1108.17 365.906,-2500.63 882.535,-2947.06 2361.43,-3017.46" style="fill:none;stroke:#5a3200;stroke-width:8;stroke-linecap:round;stroke-linejoin:round;stroke-miterlimit:10;stroke-dasharray:none;stroke-opacity:0.15" transform="matrix(0.13333333,0,0,-0.13333333,0,666.66667)" />
  <path d="M -2297.48,805.301 C -1300.49,-177.461 -469.91,362.852 -1.77344,-1021.45 466.367,-2405.74 979.965,-2849.57 2450.21,-2919.55" style="fill:none;stroke:#5a3200;stroke-width:8;stroke-linecap:round;stroke-linejoin:round;stroke-miterlimit:10;stroke-dasharray:none;stroke-opacity:0.15" transform="matrix(0.13333333,0,0,-0.13333333,0,666.66667)" />
  <path d="M -2180.74,881.27 C -1189.62,-95.6992 -363.941,441.441 101.441,-934.719 566.82,-2310.86 1077.4,-2752.07 2538.98,-2821.65" style="fill:none;stroke:#5a3200;stroke-width:8;stroke-linecap:round;stroke-linejoin:round;stroke-miterlimit:10;stroke-dasharray:none;stroke-opacity:0.15" transform="matrix(0.13333333,0,0,-0.13333333,0,666.66667)" />
  <path d="M -2064,957.238 C -1078.76,-13.9492 -257.969,520.012 204.652,-847.988 667.281,-2215.99 1174.83,-2654.57 2627.75,-2723.74" style="fill:none;stroke:#5a3200;stroke-width:8;stroke-linecap:round;stroke-linejoin:round;stroke-miterlimit:10;stroke-dasharray:none;stroke-opacity:0.15" transform="matrix(0.13333333,0,0,-0.13333333,0,666.66667)" />
  <path d="M -1947.27,1033.2 C -967.895,67.8086 -151.996,598.582 307.871,-761.258 767.738,-2121.1 1272.27,-2557.08 2716.52,-2625.83" style="fill:none;stroke:#5a3200;stroke-width:8;stroke-linecap:round;stroke-linejoin:round;stroke-miterlimit:10;stroke-dasharray:none;stroke-opacity:0.15" transform="matrix(0.13333333,0,0,-0.13333333,0,666.66667)" />
  <path d="M -1830.53,1109.18 C -857.031,149.57 -46.0273,677.16 411.086,-674.531 868.191,-2026.22 1369.7,-2459.58 2805.3,-2527.92" style="fill:none;stroke:#5a3200;stroke-width:8;stroke-linecap:round;stroke-linejoin:round;stroke-miterlimit:10;stroke-dasharray:none;stroke-opacity:0.15" transform="matrix(0.13333333,0,0,-0.13333333,0,666.66667)" />
  <path d="M -1713.8,1185.15 C -746.168,231.332 59.9453,755.73 514.301,-587.801 968.652,-1931.34 1467.13,-2362.09 2894.07,-2430.02" style="fill:none;stroke:#5a3200;stroke-width:8;stroke-linecap:round;stroke-linejoin:round;stroke-miterlimit:10;stroke-dasharray:none;stroke-opacity:0.15" transform="matrix(0.13333333,0,0,-0.13333333,0,666.66667)" />
  <path d="M -1597.06,1261.11 C -635.305,313.09 165.918,834.309 617.516,-501.07 1069.11,-1836.46 1564.56,-2264.59 2982.84,-2332.11" style="fill:none;stroke:#5a3200;stroke-width:8;stroke-linecap:round;stroke-linejoin:round;stroke-miterlimit:10;stroke-dasharray:none;stroke-opacity:0.15" transform="matrix(0.13333333,0,0,-0.13333333,0,666.66667)" />
  <path d="M -1480.3,1337.1 C -524.398,394.801 271.898,912.898 720.699,-414.301 c 14.102,-41.597 28.203,-82.297 42.297,-122.097" style="fill:none;stroke:#5a3200;stroke-width:8;stroke-linecap:round;stroke-linejoin:round;stroke-miterlimit:10;stroke-dasharray:none;stroke-opacity:0.15" transform="matrix(0.13333333,0,0,-0.13333333,0,666.66667)" />
  <path d="M -1363.6,1413.1 C -413.598,476.602 377.898,991.5 823.902,-327.602 c 8.399,-24.898 16.899,-49.5 25.399,-73.699" style="fill:none;stroke:#5a3200;stroke-width:8;stroke-linecap:round;stroke-linejoin:round;stroke-miterlimit:10;stroke-dasharray:none;stroke-opacity:0.15" transform="matrix(0.13333333,0,0,-0.13333333,0,666.66667)" />
  <path d="M -1246.9,1489 C -302.699,558.398 483.801,1070 927.203,-240.898 c 3.895,-11.403 7.699,-22.7 11.598,-34" style="fill:none;stroke:#5a3200;stroke-width:8;stroke-linecap:round;stroke-linejoin:round;stroke-miterlimit:10;stroke-dasharray:none;stroke-opacity:0.15" transform="matrix(0.13333333,0,0,-0.13333333,0,666.66667)" />
  <path d="m -1130.1,1565 c 938.299,-924.898 1719.901,-416.4 2160.5,-1719.199 0.2,-0.699 0.5,-1.301 0.7,-2" style="fill:none;stroke:#5a3200;stroke-width:8;stroke-linecap:round;stroke-linejoin:round;stroke-miterlimit:10;stroke-dasharray:none;stroke-opacity:0.15" transform="matrix(0.13333333,0,0,-0.13333333,0,666.66667)" />
  <path d="M -1013.4,1641 C -86.4023,727.301 686.699,1221.3 1125.9,-44.8984" style="fill:none;stroke:#5a3200;stroke-width:8;stroke-linecap:round;stroke-linejoin:round;stroke-miterlimit:10;stroke-dasharray:none;stroke-opacity:0.15" transform="matrix(0.13333333,0,0,-0.13333333,0,666.66667)" />
  <path d="M -896.602,1716.9 C 20.1992,813.199 785.496,1295.4 1223,59.1016" style="fill:none;stroke:#5a3200;stroke-width:8;stroke-linecap:round;stroke-linejoin:round;stroke-miterlimit:10;stroke-dasharray:none;stroke-opacity:0.15" transform="matrix(0.13333333,0,0,-0.13333333,0,666.66667)" />
  <path d="M -728.199,1743.3 C 157.102,915 895.398,1348 1322.4,156.5" style="fill:none;stroke:#5a3200;stroke-width:8;stroke-linecap:round;stroke-linejoin:round;stroke-miterlimit:10;stroke-dasharray:none;stroke-opacity:0.15" transform="matrix(0.13333333,0,0,-0.13333333,0,666.66667)" />
  <path d="M -430.898,1665.4 C 367.203,1049.3 1029.2,1344 1424.2,247.301" style="fill:none;stroke:#5a3200;stroke-width:8;stroke-linecap:round;stroke-linejoin:round;stroke-miterlimit:10;stroke-dasharray:none;stroke-opacity:0.15" transform="matrix(0.13333333,0,0,-0.13333333,0,666.66667)" />
  <path d="M -148.301,1624.7 C 570.199,1164.9 1163.9,1346 1528.3,331.402" style="fill:none;stroke:#5a3200;stroke-width:8;stroke-linecap:round;stroke-linejoin:round;stroke-miterlimit:10;stroke-dasharray:none;stroke-opacity:0.15" transform="matrix(0.13333333,0,0,-0.13333333,0,666.66667)" />
  <path d="M 124.102,1610.2 C 768.699,1265.2 1299.9,1350.8 1634.8,409.301" style="fill:none;stroke:#5a3200;stroke-width:8;stroke-linecap:round;stroke-linejoin:round;stroke-miterlimit:10;stroke-dasharray:none;stroke-opacity:0.15" transform="matrix(0.13333333,0,0,-0.13333333,0,666.66667)" />
  <path d="M 377.301,1619.2 C 957.898,1351.4 1435.5,1362.2 1743.5,480.301" style="fill:none;stroke:#5a3200;stroke-width:8;stroke-linecap:round;stroke-linejoin:round;stroke-miterlimit:10;stroke-dasharray:none;stroke-opacity:0.15" transform="matrix(0.13333333,0,0,-0.13333333,0,666.66667)" />
  <path d="M 605.602,1647.6 C 1039.2,1467.4 1409.4,1404.6 1685.8,926.602" style="fill:none;stroke:#5a3200;stroke-width:8;stroke-linecap:round;stroke-linejoin:round;stroke-miterlimit:10;stroke-dasharray:none;stroke-opacity:0.15" transform="matrix(0.13333333,0,0,-0.13333333,0,666.66667)" />
  <path d="M 809.504,1689.8 C 1158,1553.5 1461.8,1470.7 1704.1,1142.5" style="fill:none;stroke:#5a3200;stroke-width:8;stroke-linecap:round;stroke-linejoin:round;stroke-miterlimit:10;stroke-dasharray:none;stroke-opacity:0.15" transform="matrix(0.13333333,0,0,-0.13333333,0,666.66667)" />
  <path d="M 991.602,1742.1 C 1277.8,1633 1531.8,1547.1 1743.4,1307.1" style="fill:none;stroke:#5a3200;stroke-width:8;stroke-linecap:round;stroke-linejoin:round;stroke-miterlimit:10;stroke-dasharray:none;stroke-opacity:0.15" transform="matrix(0.13333333,0,0,-0.13333333,0,666.66667)" />
  <path d="M 1155.5,1801.6 C 1394.8,1711 1610.2,1629 1795.7,1446.1" style="fill:none;stroke:#5a3200;stroke-width:8;stroke-linecap:round;stroke-linejoin:round;stroke-miterlimit:10;stroke-dasharray:none;stroke-opacity:0.15" transform="matrix(0.13333333,0,0,-0.13333333,0,666.66667)" />
  <path d="m 1304,1867 c 204.2,-77.6 390.3,-153.2 554.2,-298.2" style="fill:none;stroke:#5a3200;stroke-width:8;stroke-linecap:round;stroke-linejoin:round;stroke-miterlimit:10;stroke-dasharray:none;stroke-opacity:0.15" transform="matrix(0.13333333,0,0,-0.13333333,0,666.66667)" />
  <path d="m 1930.2,1679.6 c -147.3,119.9 -311.7,189.2 -490.6,257.6" style="fill:none;stroke:#5a3200;stroke-width:8;stroke-linecap:round;stroke-linejoin:round;stroke-miterlimit:10;stroke-dasharray:none;stroke-opacity:0.15" transform="matrix(0.13333333,0,0,-0.13333333,0,666.66667)" />
  <path d="m 2011.9,1781.1 c -135.8,104 -285.8,168.2 -447.7,230.5" style="fill:none;stroke:#5a3200;stroke-width:8;stroke-linecap:round;stroke-linejoin:round;stroke-miterlimit:10;stroke-dasharray:none;stroke-opacity:0.15" transform="matrix(0.13333333,0,0,-0.13333333,0,666.66667)" />
  <path d="m 2103.6,1873.9 c -129.3,95.6 -271.4,156.7 -424.2,215.7" style="fill:none;stroke:#5a3200;stroke-width:8;stroke-linecap:round;stroke-linejoin:round;stroke-miterlimit:10;stroke-dasharray:none;stroke-opacity:0.15" transform="matrix(0.13333333,0,0,-0.13333333,0,666.66667)" />
  <path d="m 2206.1,1958.6 c -128.3,94 -269.1,154.2 -420.5,212.5" style="fill:none;stroke:#5a3200;stroke-width:8;stroke-linecap:round;stroke-linejoin:round;stroke-miterlimit:10;stroke-dasharray:none;stroke-opacity:0.15" transform="matrix(0.13333333,0,0,-0.13333333,0,666.66667)" />
  <path d="m 2320.4,2034.3 c -132.5,99 -278.6,160.7 -436.2,221.1" style="fill:none;stroke:#5a3200;stroke-width:8;stroke-linecap:round;stroke-linejoin:round;stroke-miterlimit:10;stroke-dasharray:none;stroke-opacity:0.15" transform="matrix(0.13333333,0,0,-0.13333333,0,666.66667)" />
  <path d="m 2447.9,2100.1 h -0.1 c -142.1,111.7 -300.4,176.8 -472.2,242.4" style="fill:none;stroke:#5a3200;stroke-width:8;stroke-linecap:round;stroke-linejoin:round;stroke-miterlimit:10;stroke-dasharray:none;stroke-opacity:0.15" transform="matrix(0.13333333,0,0,-0.13333333,0,666.66667)" />
  <path d="m 2589.1,2153.3 h -0.1 c -156.6,134.5 -334.1,205 -528.6,278.8" style="fill:none;stroke:#5a3200;stroke-width:8;stroke-linecap:round;stroke-linejoin:round;stroke-miterlimit:10;stroke-dasharray:none;stroke-opacity:0.15" transform="matrix(0.13333333,0,0,-0.13333333,0,666.66667)" />
  <path d="m 2743.5,2191 h -0.1 c -175.1,171.1 -378.5,247.5 -604.4,333" style="fill:none;stroke:#5a3200;stroke-width:8;stroke-linecap:round;stroke-linejoin:round;stroke-miterlimit:10;stroke-dasharray:none;stroke-opacity:0.15" transform="matrix(0.13333333,0,0,-0.13333333,0,666.66667)" />
  <path d="M 2909.1,2209.8 H 2909 C 2713.1,2436.3 2477.5,2517 2211.8,2618" style="fill:none;stroke:#5a3200;stroke-width:8;stroke-linecap:round;stroke-linejoin:round;stroke-miterlimit:10;stroke-dasharray:none;stroke-opacity:0.15" transform="matrix(0.13333333,0,0,-0.13333333,0,666.66667)" />
  <path d="m 3081.7,2206.6 h -0.1 c -217,306.5 -489.6,387.2 -802.7,508" style="fill:none;stroke:#5a3200;stroke-width:8;stroke-linecap:round;stroke-linejoin:round;stroke-miterlimit:10;stroke-dasharray:none;stroke-opacity:0.15" transform="matrix(0.13333333,0,0,-0.13333333,0,666.66667)" />
  <path d="m 2340.6,2813.4 c 366.4,-145.2 679.5,-217.9 915.7,-633.7" style="fill:none;stroke:#5a3200;stroke-width:8;stroke-linecap:round;stroke-linejoin:round;stroke-miterlimit:10;stroke-dasharray:none;stroke-opacity:0.15" transform="matrix(0.13333333,0,0,-0.13333333,0,666.66667)" />
  <path d="m 2399.2,2914.2 c 423.7,-174.6 779,-228.3 1030.3,-786.8" style="fill:none;stroke:#5a3200;stroke-width:8;stroke-linecap:round;stroke-linejoin:round;stroke-miterlimit:10;stroke-dasharray:none;stroke-opacity:0.15" transform="matrix(0.13333333,0,0,-0.13333333,0,666.66667)" />
  <path d="m 2457.6,3016 c 482.7,-208.8 880.2,-230.5 1141.2,-967.6" style="fill:none;stroke:#5a3200;stroke-width:8;stroke-linecap:round;stroke-linejoin:round;stroke-miterlimit:10;stroke-dasharray:none;stroke-opacity:0.15" transform="matrix(0.13333333,0,0,-0.13333333,0,666.66667)" />
  <path d="m 2519.1,3117.6 c 509.3,-232.3 927.3,-225.4 1194.9,-1016.8 20,-59 40,-115.8 60.3,-170.6" style="fill:none;stroke:#5a3200;stroke-width:8;stroke-linecap:round;stroke-linejoin:round;stroke-miterlimit:10;stroke-dasharray:none;stroke-opacity:0.15" transform="matrix(0.13333333,0,0,-0.13333333,0,666.66667)" />
  <path d="m 2587.6,3217.2 c 525.3,-252.1 956.3,-221.8 1229.6,-1029.7 68.1,-201.4 137.5,-377.4 212.7,-530.8 0,-0.1 0.1,-0.2 0.1,-0.3" style="fill:none;stroke:#5a3200;stroke-width:8;stroke-linecap:round;stroke-linejoin:round;stroke-miterlimit:10;stroke-dasharray:none;stroke-opacity:0.15" transform="matrix(0.13333333,0,0,-0.13333333,0,666.66667)" />
  <path d="m 4153.4,1434.1 v -0.1 c 83.1,-131.5 174.6,-241.4 279.2,-332.9" style="fill:none;stroke:#5a3200;stroke-width:8;stroke-linecap:round;stroke-linejoin:round;stroke-miterlimit:10;stroke-dasharray:none;stroke-opacity:0.15" transform="matrix(0.13333333,0,0,-0.13333333,0,666.66667)" />
  <path d="m 2667.6,3312 c 536,-267.6 976,-219.4 1252.8,-1037.8 181.5,-536.8 371.9,-891.3 659.2,-1118.6" style="fill:none;stroke:#5a3200;stroke-width:8;stroke-linecap:round;stroke-linejoin:round;stroke-miterlimit:10;stroke-dasharray:none;stroke-opacity:0.15" transform="matrix(0.13333333,0,0,-0.13333333,0,666.66667)" />
  <path d="m 2764.4,3399 c 539.2,-274.8 981.8,-217.7 1259.2,-1038 186.5,-551.6 382.4,-909.3 684.8,-1133.6" style="fill:none;stroke:#5a3200;stroke-width:8;stroke-linecap:round;stroke-linejoin:round;stroke-miterlimit:10;stroke-dasharray:none;stroke-opacity:0.15" transform="matrix(0.13333333,0,0,-0.13333333,0,666.66667)" />
  <path d="m 2882.7,3474.9 c 532.6,-269.4 969.8,-215.9 1244.1,-1027.2 187,-552.8 383.4,-909.4 688.6,-1131.5" style="fill:none;stroke:#5a3200;stroke-width:8;stroke-linecap:round;stroke-linejoin:round;stroke-miterlimit:10;stroke-dasharray:none;stroke-opacity:0.15" transform="matrix(0.13333333,0,0,-0.13333333,0,666.66667)" />
  <path d="m 3028.8,3537.2 c 513.3,-249 934.7,-214.7 1201.2,-1002.8 183.5,-542.5 376.1,-894.6 673.3,-1115.4" style="fill:none;stroke:#5a3200;stroke-width:8;stroke-linecap:round;stroke-linejoin:round;stroke-miterlimit:10;stroke-dasharray:none;stroke-opacity:0.15" transform="matrix(0.13333333,0,0,-0.13333333,0,666.66667)" />
  <path d="m 3211.1,3583.8 c 477.8,-213.3 869.9,-216.7 1122.1,-962.7 177.5,-524.8 363.7,-870 646.2,-1090.1" style="fill:none;stroke:#5a3200;stroke-width:8;stroke-linecap:round;stroke-linejoin:round;stroke-miterlimit:10;stroke-dasharray:none;stroke-opacity:0.15" transform="matrix(0.13333333,0,0,-0.13333333,0,666.66667)" />
  <path d="m 3445.3,3611.6 c 418.8,-166.4 762.8,-228.2 991.2,-903.7 168.9,-499.6 345.7,-835.1 607.3,-1054.4" style="fill:none;stroke:#5a3200;stroke-width:8;stroke-linecap:round;stroke-linejoin:round;stroke-miterlimit:10;stroke-dasharray:none;stroke-opacity:0.15" transform="matrix(0.13333333,0,0,-0.13333333,0,666.66667)" />
  <path d="m 4726.2,2322.9 c 106.4,-224.2 224.9,-399.1 370.2,-533.9" style="fill:none;stroke:#5a3200;stroke-width:8;stroke-linecap:round;stroke-linejoin:round;stroke-miterlimit:10;stroke-dasharray:none;stroke-opacity:0.15" transform="matrix(0.13333333,0,0,-0.13333333,0,666.66667)" />
  <path d="M 3741.4,3620.3 C 3951,3540 4137.6,3458.3 4295,3266" style="fill:none;stroke:#5a3200;stroke-width:8;stroke-linecap:round;stroke-linejoin:round;stroke-miterlimit:10;stroke-dasharray:none;stroke-opacity:0.15" transform="matrix(0.13333333,0,0,-0.13333333,0,666.66667)" />
  <path d="m 5137.2,1941.1 c -12,12.7 -23.8,25.6 -35.4,38.9" style="fill:none;stroke:#5a3200;stroke-width:8;stroke-linecap:round;stroke-linejoin:round;stroke-miterlimit:10;stroke-dasharray:none;stroke-opacity:0.15" transform="matrix(0.13333333,0,0,-0.13333333,0,666.66667)" />
  <path d="m 4273.5,3476.6 c -78.1,64.6 -161.9,112.2 -250.8,153" style="fill:none;stroke:#5a3200;stroke-width:8;stroke-linecap:round;stroke-linejoin:round;stroke-miterlimit:10;stroke-dasharray:none;stroke-opacity:0.15" transform="matrix(0.13333333,0,0,-0.13333333,0,666.66667)" />
  <path d="m 4272.4,3635.4 c -3.7,2.3 -7.4,4.6 -11.1,6.8" style="fill:none;stroke:#5a3200;stroke-width:8;stroke-linecap:round;stroke-linejoin:round;stroke-miterlimit:10;stroke-dasharray:none;stroke-opacity:0.15" transform="matrix(0.13333333,0,0,-0.13333333,0,666.66667)" />
  </g>
</svg>